# Blender v2.83.2 OBJ File: 'table.blend'
# www.blender.org
mtllib table.mtl
o Cube
v 2.746498 3.511466 -5.199742
v 2.746498 3.092951 -5.199742
v 2.746498 3.511466 5.199742
v 2.746498 3.092951 5.199742
v -2.746498 3.511466 -5.199742
v -2.746498 3.092951 -5.199742
v -2.746498 3.511466 5.199742
v -2.746498 3.092951 5.199742
v -2.229161 3.092951 -4.712503
v -2.229161 3.092951 4.712503
v 2.229161 3.092951 -4.712503
v 2.229161 3.092951 4.712503
v -2.229161 3.092951 -4.189611
v -2.229161 3.092951 4.189611
v 2.229161 3.092951 -4.189611
v 2.229161 3.092951 4.189611
v 1.663202 3.092951 -5.199741
v -1.663202 3.092951 -5.199741
v 1.663202 3.511466 5.199741
v -1.663202 3.511466 5.199741
v -1.663202 3.092951 5.199741
v 1.663202 3.092951 5.199741
v -1.663202 3.511466 -5.199741
v 1.663202 3.511466 -5.199741
v 1.663201 3.092951 -4.712503
v -1.663202 3.092951 -4.712503
v -1.663201 3.092951 4.712503
v 1.663202 3.092951 4.712503
v 1.663201 3.092951 -4.189611
v -1.663202 3.092951 -4.189611
v -1.663201 3.092951 4.189611
v 1.663202 3.092951 4.189611
v -1.663202 0.000000 -4.712503
v -2.229161 0.000000 -4.712503
v 1.663202 0.000000 4.712503
v 2.229161 0.000000 4.712503
v -1.663202 0.000000 -4.189611
v -2.229161 0.000000 -4.189611
v 1.663202 0.000000 4.189611
v 2.229161 0.000000 4.189611
v -2.229161 0.000000 4.712503
v -2.229161 0.000000 4.189611
v 2.229161 0.000000 -4.189611
v 2.229161 0.000000 -4.712503
v 1.663201 0.000000 -4.712503
v -1.663201 0.000000 4.712503
v 1.663201 0.000000 -4.189611
v -1.663201 0.000000 4.189611
vt 0.791667 0.500000
vt 0.875000 0.500000
vt 0.875000 0.750000
vt 0.791667 0.750000
vt 0.375000 0.916667
vt 0.625000 0.916667
vt 0.625000 1.000000
vt 0.375000 1.000000
vt 0.375000 0.000000
vt 0.625000 0.000000
vt 0.625000 0.250000
vt 0.375000 0.250000
vt 0.375000 0.416667
vt 0.375000 0.500000
vt 0.375000 0.500000
vt 0.375000 0.416667
vt 0.625000 0.500000
vt 0.625000 0.750000
vt 0.375000 0.750000
vt 0.625000 0.416667
vt 0.375000 0.250000
vt 0.375000 0.333333
vt 0.375000 0.333333
vt 0.375000 0.250000
vt 0.375000 1.000000
vt 0.375000 0.916667
vt 0.375000 0.000000
vt 0.375000 0.750000
vt 0.291667 0.500000
vt 0.375000 0.500000
vt 0.375000 0.750000
vt 0.291667 0.750000
vt 0.375000 0.250000
vt 0.375000 0.000000
vt 0.375000 0.833333
vt 0.375000 0.833333
vt 0.375000 0.833333
vt 0.375000 0.833333
vt 0.125000 0.750000
vt 0.208333 0.750000
vt 0.208333 0.750000
vt 0.125000 0.750000
vt 0.375000 0.416667
vt 0.375000 0.333333
vt 0.125000 0.500000
vt 0.208333 0.500000
vt 0.375000 0.833333
vt 0.375000 0.500000
vt 0.375000 0.500000
vt 0.375000 0.916667
vt 0.625000 0.333333
vt 0.375000 0.333333
vt 0.625000 0.833333
vt 0.708333 0.500000
vt 0.708333 0.750000
vt 0.375000 0.916667
vt 0.375000 1.000000
vt 0.375000 1.000000
vt 0.375000 0.916667
vt 0.375000 0.416667
vt 0.375000 0.416667
vt 0.375000 0.333333
vt 0.375000 0.250000
vt 0.375000 0.750000
vt 0.375000 0.750000
vt 0.125000 0.500000
vt 0.208333 0.500000
vt 0.291667 0.750000
vt 0.375000 0.000000
vt 0.375000 0.000000
vt 0.291667 0.500000
vn 0.0000 1.0000 0.0000
vn 0.0000 0.0000 1.0000
vn -1.0000 0.0000 0.0000
vn 0.0000 -1.0000 0.0000
vn 1.0000 0.0000 0.0000
vn 0.0000 0.0000 -1.0000
usemtl Material
s off
f 23/1/1 5/2/1 7/3/1 20/4/1
f 21/5/2 20/6/2 7/7/2 8/8/2
f 8/9/3 7/10/3 5/11/3 6/12/3
f 17/13/4 2/14/4 11/15/4 25/16/4
f 2/14/5 1/17/5 3/18/5 4/19/5
f 17/13/6 24/20/6 1/17/6 2/14/6
f 9/21/6 26/22/6 33/23/6 34/24/6
f 21/5/4 8/8/4 10/25/4 27/26/4
f 8/9/4 6/12/4 9/21/4 10/27/4
f 2/14/4 4/19/4 12/28/4 11/15/4
f 29/29/4 15/30/4 16/31/4 32/32/4
f 10/27/4 9/21/4 13/33/4 14/34/4
f 11/15/4 12/28/4 16/31/4 15/30/4
f 28/35/3 32/36/3 39/37/3 35/38/3
f 14/39/6 31/40/6 48/41/6 42/42/6
f 26/22/4 25/16/4 29/43/4 30/44/4
f 13/45/4 30/46/4 31/40/4 14/39/4
f 30/46/4 29/29/4 32/32/4 31/40/4
f 4/19/4 22/47/4 28/35/4 12/28/4
f 22/47/4 21/5/4 27/26/4 28/35/4
f 11/15/5 15/30/5 43/48/5 44/49/5
f 28/35/4 27/26/4 31/50/4 32/36/4
f 6/12/6 5/11/6 23/51/6 18/52/6
f 18/52/6 23/51/6 24/20/6 17/13/6
f 6/12/4 18/52/4 26/22/4 9/21/4
f 18/52/4 17/13/4 25/16/4 26/22/4
f 4/19/2 3/18/2 19/53/2 22/47/2
f 22/47/2 19/53/2 20/6/2 21/5/2
f 1/17/1 24/54/1 19/55/1 3/18/1
f 24/54/1 23/1/1 20/4/1 19/55/1
f 46/56/4 41/57/4 42/58/4 48/59/4
f 45/60/4 44/49/4 43/48/4 47/61/4
f 34/24/4 33/23/4 37/62/4 38/63/4
f 36/64/4 35/38/4 39/37/4 40/65/4
f 30/46/2 13/45/2 38/66/2 37/67/2
f 25/16/6 11/15/6 44/49/6 45/60/6
f 31/50/5 27/26/5 46/56/5 48/59/5
f 12/28/2 28/35/2 35/38/2 36/64/2
f 26/22/5 30/44/5 37/62/5 33/23/5
f 32/32/6 16/31/6 40/65/6 39/68/6
f 29/43/3 25/16/3 45/60/3 47/61/3
f 27/26/2 10/25/2 41/57/2 46/56/2
f 10/27/3 14/34/3 42/69/3 41/70/3
f 16/31/5 12/28/5 36/64/5 40/65/5
f 15/30/2 29/29/2 47/71/2 43/48/2
f 13/33/3 9/21/3 34/24/3 38/63/3
